<?xml version="1.0" encoding="UTF-8"?><svg version="1.1" xmlns="http://www.w3.org/2000/svg" width="72" height="72"><path d="M0 0 C3.24742439 1.70179125 6.3416222 3.60083222 9.4375 5.5625 C10.23865234 6.05685547 11.03980469 6.55121094 11.86523438 7.06054688 C17.68183245 10.68183245 17.68183245 10.68183245 20 13 C20.44646399 17.36182863 20.41419627 21.73884758 20.42553711 26.12084961 C20.43740237 28.2946143 20.48653629 30.46550954 20.53710938 32.63867188 C20.54657771 34.02602784 20.55381079 35.41340122 20.55859375 36.80078125 C20.57204834 38.06059814 20.58550293 39.32041504 20.59936523 40.6184082 C19.69719686 45.70840176 16.86200884 47.69757125 12.76757812 50.56152344 C12.02958984 50.98981445 11.29160156 51.41810547 10.53125 51.859375 C9.71269531 52.33503906 8.89414062 52.81070313 8.05078125 53.30078125 C7.20902344 53.77902344 6.36726563 54.25726563 5.5 54.75 C4.65824219 55.24371094 3.81648438 55.73742188 2.94921875 56.24609375 C-4.39228855 60.46601527 -4.39228855 60.46601527 -9 61 C-12.1640625 59.8125 -12.1640625 59.8125 -15.625 58 C-16.23311523 57.68329346 -16.84123047 57.36658691 -17.46777344 57.0402832 C-31.27059383 49.72940617 -31.27059383 49.72940617 -36 45 C-36.44646399 40.63817137 -36.41419627 36.26115242 -36.42553711 31.87915039 C-36.43740237 29.7053857 -36.48653629 27.53449046 -36.53710938 25.36132812 C-36.54657771 23.97397216 -36.55381079 22.58659878 -36.55859375 21.19921875 C-36.57204834 19.93940186 -36.58550293 18.67958496 -36.59936523 17.3815918 C-35.83499183 13.06903133 -34.36096989 11.72513493 -31 9 C-28.73583984 7.43847656 -28.73583984 7.43847656 -26.4609375 6.140625 C-25.63335937 5.66496094 -24.80578125 5.18929688 -23.953125 4.69921875 C-23.10234375 4.22097656 -22.2515625 3.74273437 -21.375 3.25 C-20.51648437 2.75628906 -19.65796875 2.26257813 -18.7734375 1.75390625 C-11.25658041 -2.53305131 -8.07536588 -3.40706697 0 0 Z " fill="#7254DC" transform="translate(44,7)"/><path d="M0 0 C0.99 0.33 1.98 0.66 3 1 C3 1.99 3 2.98 3 4 C4.32 4 5.64 4 7 4 C7.33 2.68 7.66 1.36 8 0 C8.99 0.33 9.98 0.66 11 1 C11 1.99 11 2.98 11 4 C12.32 4.33 13.64 4.66 15 5 C14.67 5.99 14.34 6.98 14 8 C13.01 8 12.02 8 11 8 C11 9.32 11 10.64 11 12 C12.32 12.33 13.64 12.66 15 13 C14.67 13.99 14.34 14.98 14 16 C13.01 16 12.02 16 11 16 C10.67 17.32 10.34 18.64 10 20 C9.01 19.67 8.02 19.34 7 19 C7 18.01 7 17.02 7 16 C5.68 16 4.36 16 3 16 C2.67 17.32 2.34 18.64 2 20 C1.01 19.67 0.02 19.34 -1 19 C-1 18.01 -1 17.02 -1 16 C-2.32 15.67 -3.64 15.34 -5 15 C-4.67 14.01 -4.34 13.02 -4 12 C-3.01 12 -2.02 12 -1 12 C-1 10.68 -1 9.36 -1 8 C-2.32 7.67 -3.64 7.34 -5 7 C-4.67 6.01 -4.34 5.02 -4 4 C-3.01 4 -2.02 4 -1 4 C-0.67 2.68 -0.34 1.36 0 0 Z " fill="#F4F1FC" transform="translate(39,26)"/><path d="M0 0 C3.4375 0.8125 3.4375 0.8125 5.4375 2.8125 C5.0625 5.4375 5.0625 5.4375 4.4375 7.8125 C3.4475 7.4825 2.4575 7.1525 1.4375 6.8125 C1.1075 6.1525 0.7775 5.4925 0.4375 4.8125 C-0.2225 4.8125 -0.8825 4.8125 -1.5625 4.8125 C-1.5625 8.1125 -1.5625 11.4125 -1.5625 14.8125 C-0.9025 14.8125 -0.2425 14.8125 0.4375 14.8125 C1.0975 13.8225 1.7575 12.8325 2.4375 11.8125 C3.4275 12.1425 4.4175 12.4725 5.4375 12.8125 C5.125 15.1875 5.125 15.1875 4.4375 17.8125 C1.4375 19.8125 1.4375 19.8125 -1.625 19.625 C-4.5625 18.8125 -4.5625 18.8125 -6.5625 15.8125 C-6.86328125 12.78125 -6.86328125 12.78125 -6.875 9.3125 C-6.89175781 8.1678125 -6.90851562 7.023125 -6.92578125 5.84375 C-6.5625 2.8125 -6.5625 2.8125 -5.265625 0.89453125 C-3.5625 -0.1875 -3.5625 -0.1875 0 0 Z " fill="#F9F7FD" transform="translate(24.5625,26.1875)"/></svg>
